<svg width="233" height="61" viewBox="0 0 233 61" fill="none" xmlns="http://www.w3.org/2000/svg">
<path d="M73.4127 17.5937C73.4127 18.0266 73.3262 18.4271 73.1566 18.8023C72.987 19.1775 72.7597 19.4986 72.4747 19.7727C72.1897 20.0433 71.8506 20.2598 71.4538 20.4185C71.0569 20.5773 70.642 20.6566 70.2127 20.6566C69.3036 20.6566 68.546 20.3572 67.9327 19.7547C67.3193 19.1522 67.0127 18.4343 67.0127 17.5937C67.0127 17.186 67.0921 16.7928 67.2508 16.4212C67.4095 16.046 67.6368 15.7249 67.9327 15.4507C68.2285 15.1801 68.5676 14.9565 68.9536 14.7869C69.3396 14.6173 69.7581 14.5308 70.2127 14.5308C70.642 14.5308 71.0569 14.6101 71.4538 14.7689C71.8506 14.9276 72.1897 15.1441 72.4747 15.4146C72.7561 15.6852 72.9834 16.0099 73.1566 16.3851C73.3298 16.7603 73.4127 17.1644 73.4127 17.5937ZM67.424 38.944V25.7976C67.424 24.2571 68.6722 23.0088 70.2127 23.0088C71.7532 23.0088 73.0015 24.2571 73.0015 25.7976V38.944H67.424Z" fill="#3858A6"/>
<path d="M99.0743 38.944V29.6867C99.0743 29.2105 99.0382 28.7487 98.9733 28.3085C98.9048 27.8648 98.7821 27.486 98.5981 27.1685C98.4177 26.851 98.1724 26.5949 97.8657 26.4037C97.5591 26.2125 97.155 26.1151 96.6572 26.1151C96.1809 26.1151 95.7661 26.2161 95.4161 26.4217C95.0626 26.6273 94.7703 26.8979 94.5322 27.2371C94.2941 27.5762 94.1173 27.9694 94.0055 28.4096C93.8937 28.8533 93.8359 29.3115 93.8359 29.7877V38.944H88.2548V29.279C88.2548 28.3049 88.0636 27.5329 87.6776 26.9665C87.2916 26.4001 86.6783 26.1151 85.8413 26.1151C84.9574 26.1151 84.2719 26.4686 83.7813 27.1721C83.2943 27.8756 83.0489 28.7379 83.0489 29.7588V38.9476H77.4354V24.3473C77.4354 23.0521 78.4852 21.9987 79.784 21.9987H80.4983C81.7935 21.9987 82.8469 23.0485 82.8469 24.3473H82.9155C83.1211 23.9865 83.3736 23.633 83.6803 23.2902C83.9869 22.9511 84.3549 22.6517 84.7878 22.3883C85.2172 22.1286 85.7006 21.9193 86.2345 21.7606C86.7685 21.6018 87.3529 21.5225 87.9879 21.5225C89.2145 21.5225 90.2499 21.7714 91.1013 22.2729C91.9527 22.7707 92.6165 23.485 93.0928 24.4158C93.6592 23.5319 94.3879 22.8284 95.2718 22.3053C96.1557 21.7822 97.2344 21.5225 98.5043 21.5225C99.6624 21.5225 100.633 21.7317 101.416 22.1502C102.199 22.5687 102.826 23.1135 103.303 23.7845C103.779 24.4555 104.125 25.2023 104.342 26.0321C104.558 26.8618 104.666 27.67 104.666 28.4637V38.9476H99.0743V38.944Z" fill="#3858A6"/>
<path d="M127.73 30.4008C127.73 31.5805 127.55 32.7169 127.185 33.8065C126.821 34.896 126.294 35.8556 125.602 36.6818C124.909 37.5116 124.065 38.1754 123.065 38.6733C122.066 39.1711 120.933 39.4237 119.663 39.4237C118.621 39.4237 117.632 39.2144 116.701 38.7959C115.771 38.3774 115.046 37.8038 114.522 37.0787H114.454V50.0591C114.454 51.5996 113.206 52.8479 111.665 52.8479C110.125 52.8479 108.876 51.5996 108.876 50.0591V24.697C108.876 23.2071 110.085 22.0021 111.571 22.0021H112.109C113.256 22.0021 114.183 22.9329 114.183 24.0765H114.284C114.807 23.3947 115.525 22.7994 116.445 22.2907C117.365 21.782 118.448 21.5259 119.696 21.5259C120.922 21.5259 122.034 21.764 123.029 22.2402C124.029 22.7164 124.873 23.3622 125.566 24.1811C126.258 25.0001 126.792 25.9453 127.164 27.024C127.543 28.0955 127.73 29.2211 127.73 30.4008ZM122.319 30.4008C122.319 29.856 122.232 29.3221 122.063 28.8026C121.893 28.2795 121.644 27.8213 121.316 27.4245C120.987 27.0276 120.573 26.7029 120.075 26.454C119.577 26.2051 118.996 26.0788 118.339 26.0788C117.704 26.0788 117.138 26.2051 116.637 26.454C116.139 26.7029 115.713 27.0348 115.359 27.4425C115.006 27.8502 114.735 28.3156 114.544 28.8387C114.349 29.3618 114.255 29.8921 114.255 30.4369C114.255 30.9816 114.353 31.5156 114.544 32.0351C114.735 32.5582 115.009 33.0236 115.359 33.4313C115.709 33.8389 116.135 34.1672 116.637 34.4198C117.134 34.6687 117.704 34.795 118.339 34.795C118.996 34.795 119.577 34.6687 120.075 34.4198C120.573 34.1709 120.987 33.8425 121.316 33.4313C121.644 33.0236 121.893 32.551 122.063 32.0207C122.232 31.4867 122.319 30.9456 122.319 30.4008Z" fill="#3858A6"/>
<path d="M131.305 38.9437V17.2218C131.305 15.6524 132.579 14.3789 134.148 14.3789C135.718 14.3789 136.991 15.6524 136.991 17.2218V38.9437H131.305Z" fill="#3858A6"/>
<path d="M157.952 29.0153C158.121 30.6136 156.862 32.0025 155.257 32.0025H145.87C145.917 32.4787 146.057 32.908 146.295 33.2941C146.533 33.6801 146.84 34.0156 147.215 34.297C147.591 34.5784 148.009 34.8021 148.474 34.9608C148.94 35.1196 149.42 35.1989 149.921 35.1989C150.805 35.1989 151.555 35.033 152.169 34.7047C152.32 34.6217 152.468 34.5351 152.605 34.4413C153.359 33.929 154.322 33.846 155.095 34.3331L155.21 34.4052C156.559 35.2567 156.585 37.2481 155.232 38.0923C154.965 38.2583 154.687 38.4098 154.398 38.5505C153.092 39.1746 151.577 39.4885 149.856 39.4885C148.586 39.4885 147.385 39.2901 146.248 38.8932C145.112 38.4964 144.12 37.9191 143.272 37.1579C142.421 36.3967 141.75 35.4623 141.263 34.3511C140.776 33.24 140.53 31.97 140.53 30.5378C140.53 29.1524 140.768 27.9006 141.245 26.7786C141.721 25.6566 142.367 24.7041 143.186 23.9213C144.001 23.1384 144.968 22.5323 146.079 22.0994C147.19 21.6701 148.395 21.4536 149.687 21.4536C150.935 21.4536 152.078 21.6629 153.125 22.0814C154.167 22.4998 155.066 23.1095 155.812 23.9032C156.563 24.6969 157.147 25.6602 157.566 26.7966C157.725 27.2404 157.854 28.1098 157.952 29.0153ZM153.049 28.5283C153.049 27.6444 152.771 26.8832 152.216 26.2482C151.66 25.6133 150.827 25.2958 149.715 25.2958C149.171 25.2958 148.673 25.3824 148.218 25.552C147.764 25.7215 147.367 25.956 147.028 26.2482C146.689 26.5441 146.414 26.8904 146.212 27.2873C146.01 27.6841 145.895 28.099 145.873 28.5283H153.049Z" fill="#3858A6"/>
<path d="M62.9685 19.5451C62.1676 20.3893 60.9085 20.53 59.8983 19.96C59.7649 19.8842 59.6242 19.812 59.4799 19.7435C58.697 19.3791 57.9394 19.1987 57.2106 19.1987C56.8354 19.1987 56.453 19.2312 56.067 19.2998C55.681 19.3647 55.331 19.4946 55.0244 19.6822C54.7141 19.8698 54.4543 20.1115 54.2451 20.4109C54.0358 20.7104 53.9312 21.0892 53.9312 21.5546C53.9312 21.9514 54.0142 22.2833 54.1802 22.5467C54.3461 22.81 54.5878 23.0445 54.9089 23.243C55.23 23.4414 55.6088 23.6254 56.0525 23.7913C56.4927 23.9573 56.9905 24.1269 57.5425 24.3036C58.3362 24.567 59.166 24.8628 60.0246 25.1803C60.8869 25.5014 61.6697 25.9271 62.3768 26.4538C63.0839 26.9841 63.6684 27.6407 64.1302 28.4236C64.592 29.2065 64.8265 30.1842 64.8265 31.3531C64.8265 32.6987 64.5775 33.864 64.0797 34.8453C63.5818 35.8266 62.9144 36.6383 62.0774 37.2805C61.2368 37.9191 60.2772 38.3953 59.1985 38.7055C58.1161 39.0158 57.0014 39.1709 55.8541 39.1709C54.1765 39.1709 52.5531 38.8787 50.9873 38.2943C50.522 38.1211 50.0782 37.9263 49.6597 37.7062C48.1914 36.9414 47.8919 34.9644 49.0536 33.7846L49.1582 33.6764C49.9736 32.8466 51.2651 32.6771 52.2356 33.3156C52.4917 33.4852 52.7623 33.644 53.0546 33.7883C53.9926 34.2645 54.9269 34.499 55.8541 34.499C56.2726 34.499 56.6839 34.4557 57.0807 34.3655C57.4776 34.2789 57.8275 34.1346 58.1234 33.9362C58.4228 33.7377 58.6573 33.4708 58.8341 33.1425C59.0109 32.8106 59.0974 32.4137 59.0974 31.9519C59.0974 31.5118 58.9856 31.1366 58.7655 30.8263C58.5455 30.5197 58.2316 30.2347 57.8203 29.9821C57.4126 29.7296 56.904 29.4987 56.2979 29.2859C55.6918 29.0766 54.9991 28.8493 54.2271 28.6076C53.4767 28.3659 52.7407 28.0773 52.0264 27.7454C51.3084 27.4135 50.6699 26.9878 50.1071 26.4719C49.5443 25.9523 49.0897 25.3246 48.7506 24.585C48.4078 23.8455 48.2383 22.9471 48.2383 21.8865C48.2383 20.5841 48.5016 19.4693 49.032 18.5421C49.5623 17.615 50.2586 16.8537 51.1172 16.2585C51.9795 15.6632 52.9499 15.2267 54.0322 14.9525C55.1145 14.6783 56.2077 14.5376 57.3116 14.5376C58.6357 14.5376 59.9885 14.7793 61.3667 15.2664C61.6481 15.3638 61.9223 15.4756 62.1892 15.591C63.7478 16.2765 64.141 18.3112 62.9685 19.5451Z" fill="#3858A6"/>
<path d="M30.7301 4.08998C30.7301 2.23563 29.1283 0.752868 27.2884 0.962115C14.7841 2.40519 4.58155 11.5218 1.52223 23.4669C0.90892 25.8588 0.584229 28.3662 0.584229 30.9493H6.95902C6.95902 18.7733 16.1442 8.70423 27.9486 7.30444C29.5324 7.11684 30.7337 5.7856 30.7337 4.191V4.08998H30.7301Z" fill="#3858A6"/>
<path d="M26.704 14.4729C19.3046 16.2984 13.8029 22.9943 13.8029 30.9492H20.4338C20.4338 26.1257 23.7529 22.0635 28.2264 20.927C29.7128 20.5482 30.7698 19.2386 30.7698 17.7054C30.7698 15.5768 28.7748 13.9642 26.704 14.4729Z" fill="#0097F4"/>
<path d="M10.2565 57.7542C10.2565 59.6843 11.9557 61.149 13.875 60.9182C26.2999 59.4101 36.4231 50.326 39.468 38.435C40.0813 36.0431 40.406 33.5357 40.406 30.9526H34.0312C34.0312 43.1142 24.8676 53.1724 13.0849 54.5939C11.4723 54.7851 10.2565 56.1343 10.2565 57.7542Z" fill="#3858A6"/>
<path d="M14.2826 47.429C21.682 45.6035 27.1837 38.9076 27.1837 30.9526H20.5528C20.5528 35.7761 17.2337 39.8384 12.7602 40.9748C11.2738 41.3536 10.2167 42.6632 10.2167 44.1965C10.2131 46.3286 12.2082 47.9413 14.2826 47.429Z" fill="#0097F4"/>
<path d="M179.757 39.1783L172.956 28.0161C172.924 27.962 172.956 27.8898 173.021 27.879C174.738 27.5615 176.149 26.8544 177.246 25.7613C178.368 24.6357 178.931 23.1638 178.931 21.3347C178.931 20.072 178.696 19.0005 178.227 18.1202C177.758 17.2435 177.12 16.5328 176.311 15.9953C175.503 15.4577 174.562 15.0645 173.483 14.8192C172.404 14.5738 171.271 14.4512 170.077 14.4512H164.85C163.335 14.4512 162.104 15.6814 162.104 17.1966V37.912V39.2252V39.319H162.198H165.488H165.582V37.912H165.579V28.348C165.579 28.2975 165.622 28.2542 165.672 28.2542H169.248C169.28 28.2542 169.312 28.2723 169.327 28.3011L175.597 39.2721C175.615 39.301 175.644 39.319 175.676 39.319H179.67C179.75 39.319 179.793 39.2396 179.757 39.1783ZM169.587 25.3428H165.676C165.625 25.3428 165.582 25.2995 165.582 25.249V18.1455C165.582 17.7342 165.914 17.4023 166.325 17.4023H169.832C170.582 17.4023 171.297 17.4672 171.975 17.5971C172.653 17.727 173.245 17.9434 173.75 18.2465C174.251 18.5495 174.655 18.9536 174.962 19.4587C175.265 19.9637 175.42 20.5879 175.42 21.3383C175.42 22.0887 175.269 22.7128 174.962 23.2179C174.659 23.7229 174.241 24.1306 173.714 24.4481C173.187 24.7656 172.574 24.9929 171.87 25.1336C171.167 25.2706 170.406 25.3428 169.587 25.3428Z" fill="#0097F4"/>
<path d="M187.243 17.5072H197.579C198.423 17.5072 199.105 16.8253 199.105 15.9811C199.105 15.1369 198.419 14.4515 197.575 14.4551L186.471 14.484C184.923 14.4876 183.675 15.743 183.675 17.2907V37.9123V39.2255V39.3193H183.769H187.059H187.153V37.9123H187.149V28.3122C187.149 28.2617 187.192 28.2184 187.243 28.2184H196.839C197.665 28.2184 198.333 27.551 198.333 26.7249C198.333 25.9023 197.665 25.2313 196.839 25.2313H187.243C187.192 25.2313 187.149 25.188 187.149 25.1375V17.5974C187.149 17.5505 187.192 17.5072 187.243 17.5072Z" fill="#0097F4"/>
<path d="M204.484 18.7733C205.086 18.7733 205.606 18.5749 206.035 18.178C206.465 17.7812 206.681 17.2761 206.681 16.6664C206.681 16.0567 206.465 15.548 206.035 15.1367C205.606 14.7291 205.09 14.5234 204.484 14.5234C203.882 14.5234 203.369 14.7291 202.951 15.1367C202.557 15.5228 202.352 15.9918 202.327 16.551C202.301 17.1571 202.539 17.7631 202.976 18.1816C203.391 18.5785 203.892 18.7733 204.484 18.7733Z" fill="#0097F4"/>
<path d="M204.498 22.7637C203.586 22.7637 202.846 23.5032 202.846 24.416V37.916V39.2292V39.323H202.94H206.057H206.151V39.2292V37.916V24.416C206.151 23.5032 205.411 22.7637 204.498 22.7637Z" fill="#0097F4"/>
<path d="M231.722 21.23C230.925 19.6607 229.882 18.3727 228.594 17.3662C227.306 16.3596 225.867 15.6201 224.272 15.1547C222.681 14.6857 221.087 14.4512 219.496 14.4512L213.702 14.4548C212.186 14.4548 210.96 15.685 210.96 17.2002V37.912V39.2252V39.319H211.054H214.441H219.496C221.087 39.319 222.681 39.0665 224.272 38.565C225.863 38.0599 227.306 37.2987 228.594 36.2813C229.882 35.264 230.925 33.976 231.722 32.4175C232.519 30.859 232.916 29.0154 232.916 26.8869C232.916 24.6862 232.516 22.7994 231.722 21.23ZM228.421 30.8554C227.905 32.0279 227.187 33.0092 226.26 33.8065C225.333 34.6038 224.236 35.2099 222.959 35.632C221.682 36.0541 220.296 36.2633 218.796 36.2633H214.535C214.484 36.2633 214.441 36.22 214.441 36.1695V17.5646C214.441 17.5141 214.484 17.4708 214.535 17.4708H218.796C220.293 17.4708 221.682 17.6765 222.959 18.0841C224.236 18.4954 225.336 19.0907 226.26 19.8771C227.184 20.6636 227.905 21.6377 228.421 22.8102C228.937 23.9827 229.193 25.3392 229.193 26.8833C229.193 28.3624 228.933 29.6865 228.421 30.8554Z" fill="#0097F4"/>
</svg>
